<?xml version="1.0" encoding="UTF-8" standalone="no"?>
<!-- Created with Inkscape (http://www.inkscape.org/) -->

<svg
   width="64.677628mm"
   height="89.296028mm"
   viewBox="0 0 64.677628 89.296028"
   version="1.1"
   id="svg1"
   inkscape:export-filename="schild.svg"
   inkscape:export-xdpi="96"
   inkscape:export-ydpi="96"
   xmlns:inkscape="http://www.inkscape.org/namespaces/inkscape"
   xmlns:sodipodi="http://sodipodi.sourceforge.net/DTD/sodipodi-0.dtd"
   xmlns="http://www.w3.org/2000/svg"
   xmlns:svg="http://www.w3.org/2000/svg">
  <sodipodi:namedview
     id="namedview1"
     pagecolor="#505050"
     bordercolor="#eeeeee"
     borderopacity="1"
     inkscape:showpageshadow="0"
     inkscape:pageopacity="0"
     inkscape:pagecheckerboard="0"
     inkscape:deskcolor="#505050"
     inkscape:document-units="mm" />
  <defs
     id="defs1" />
  <g
     inkscape:label="Layer 1"
     inkscape:groupmode="layer"
     id="layer1"
     transform="translate(-32.912255,-48.764834)">
    <path
       style="opacity:1;fill:#ffffff;fill-opacity:1;stroke:#000000;stroke-width:2.96122;stroke-linecap:round;stroke-linejoin:round;stroke-opacity:1"
       d="m 34.392864,50.245443 h 61.716411 v 56.175007 c 0,0 -2.774952,30.17963 -31.075446,29.99009 -31.885434,-0.21355 -30.315273,-30.05103 -30.315273,-30.05103 z"
       id="path1"
       sodipodi:nodetypes="cccscc" />
    <path
       style="display:inline;fill:none;fill-opacity:1;stroke:#000000;stroke-width:0.78;stroke-linecap:round;stroke-linejoin:round;stroke-dasharray:none;stroke-opacity:1"
       d="m 89.031879,63.097222 c -1.928211,3.607179 -5.151551,5.483619 -11.060302,5.328489 -5.90875,-0.15513 -13.094307,4.110501 -9.533282,8.284274 1.672046,1.959758 4.625212,1.496242 6.840993,0.280842 2.836696,-1.555983 4.400237,-4.251979 4.400237,-4.251979 0,0 -1.618864,2.738835 -2.121347,6.327751 -0.526671,3.761662 0.234964,7.171303 0.950682,9.384873 1.258046,3.919327 1.6037,8.438633 1.684992,11.805618 0.08774,3.63444 -2.398651,7.89594 -3.938384,10.0649 -1.56672,2.20696 -4.926452,3.02279 -5.113433,1.39375 -0.443683,-3.8655 5.73228,-4.41299 7.291728,-2.32699 1.441533,1.92825 3.500909,5.91183 2.47929,8.00032 -1.02162,2.08848 -3.793036,1.51042 -3.121559,-3.29473 0.274167,-1.96196 1.062864,-5.53898 3.000086,-7.02014 1.510216,-1.15468 3.943299,-1.72309 5.293292,0.44951 0.941928,1.51588 -0.92852,2.70664 -3.506351,2.26386 -2.577831,-0.44277 -5.951079,-4.33239 -6.860304,-5.90327 -2.106593,-3.63961 -3.38686,-9.835839 1.489098,-17.070389 4.433161,-6.57757 5.165392,0.267583 3.971061,0.929743 -1.194332,0.662146 -1.800239,-1.330915 0.139647,-2.38316 0,0 0.77809,5.69754 3.045378,6.240477 2.267288,0.542937 6.218404,-0.113905 5.621937,-4.244731 -0.596467,-4.130827 -3.05785,-3.034097 -2.67592,-2.072347 0.381935,0.961751 1.956828,0.821644 2.586106,-0.655981 0.179578,-0.421672 0.240409,-0.577036 0.147933,-2.00966 -0.09248,-1.432623 -2.70016,-3.324835 -4.043404,0.65809 -1.343245,3.982925 2.908367,9.902599 3.386319,12.640409 0.477952,2.737811 -2.671403,8.359189 -4.251815,5.375519 -1.580412,-2.983665 0.622083,-5.712517 1.39095,-5.056709 0.768867,0.655808 -1.252026,3.184559 -2.939258,0.642497"
       id="path1-7"
       sodipodi:nodetypes="czsscscssssssssssssczssszssssc"
       inkscape:label="Zirkel" />
    <path
       style="opacity:1;fill:#ffffff;fill-opacity:1;stroke:#000000;stroke-width:2.96122;stroke-linecap:round;stroke-linejoin:round;stroke-opacity:1"
       d="M 65.021718,136.58024 V 50.919022"
       id="path2" />
    <path
       style="opacity:1;fill:#ffffff;fill-opacity:1;stroke:#000000;stroke-width:2.90046;stroke-linecap:round;stroke-linejoin:round;stroke-opacity:1"
       d="M 35.521282,90.284003 H 64.87143"
       id="path3" />
    <path
       style="opacity:1;fill:#ffffff;fill-opacity:1;stroke:#000000;stroke-width:1;stroke-linecap:round;stroke-linejoin:round;stroke-dasharray:none;stroke-opacity:1"
       d="m 41.543046,86.227601 5.900457,-8.756681 c 0,0 -19.624656,-8.399607 -0.02484,-15.216068 16.305526,-5.670767 16.758585,6.399135 12.140752,12.921869 -1.863348,2.631998 -9.838732,2.665237 -9.838732,2.665237 z"
       id="path4"
       sodipodi:nodetypes="ccsscc" />
    <text
       xml:space="preserve"
       style="font-style:normal;font-variant:normal;font-weight:normal;font-stretch:normal;font-size:3.52778px;font-family:Geranium;-inkscape-font-specification:'Geranium, Normal';font-variant-ligatures:normal;font-variant-caps:normal;font-variant-numeric:normal;font-variant-east-asian:normal;opacity:1;fill:#ffffff;fill-opacity:1;stroke:#000000;stroke-width:1;stroke-linecap:round;stroke-linejoin:round;stroke-dasharray:none;stroke-opacity:1"
       x="45.532173"
       y="66.334709"
       id="text4"><tspan
         sodipodi:role="line"
         style="font-style:normal;font-variant:normal;font-weight:normal;font-stretch:normal;font-size:3.52778px;font-family:Geranium;-inkscape-font-specification:'Geranium, Normal';font-variant-ligatures:normal;font-variant-caps:normal;font-variant-numeric:normal;font-variant-east-asian:normal;fill:#000000;fill-opacity:1;stroke:none;stroke-width:1"
         x="45.532173"
         y="66.334709"
         id="tspan5">Yapper</tspan><tspan
         sodipodi:role="line"
         style="font-style:normal;font-variant:normal;font-weight:normal;font-stretch:normal;font-size:3.52778px;font-family:Geranium;-inkscape-font-specification:'Geranium, Normal';font-variant-ligatures:normal;font-variant-caps:normal;font-variant-numeric:normal;font-variant-east-asian:normal;fill:#000000;fill-opacity:1;stroke:none;stroke-width:1"
         x="45.532173"
         y="70.744431"
         id="tspan7">übersteigt </tspan><tspan
         sodipodi:role="line"
         style="font-style:normal;font-variant:normal;font-weight:normal;font-stretch:normal;font-size:3.52778px;font-family:Geranium;-inkscape-font-specification:'Geranium, Normal';font-variant-ligatures:normal;font-variant-caps:normal;font-variant-numeric:normal;font-variant-east-asian:normal;fill:#000000;fill-opacity:1;stroke:none;stroke-width:1"
         x="45.532173"
         y="75.15416"
         id="tspan6">the lingue</tspan></text>
    <circle
       style="opacity:1;fill:#000000;fill-opacity:1;stroke:none;stroke-width:0.627615;stroke-linecap:round;stroke-linejoin:round;stroke-dasharray:none;stroke-opacity:1"
       id="path8"
       cx="91.830154"
       cy="103.10549"
       r="0.50239831" />
    <path
       style="opacity:1;fill:#000000;fill-opacity:1;stroke:none;stroke-width:0.809035;stroke-linecap:round;stroke-linejoin:round;stroke-dasharray:none;stroke-opacity:1"
       d="m 91.513704,69.900006 0.207443,31.649144 0.384463,0.0416 0.528863,-31.686014 z"
       id="path9" />
  </g>
</svg>
